# xmcd
#
# Track frame offsets:
#	150
#	15705
#	39135
#	50578
#	60647
#	71731
#	88464
#	98628
#	112381
#	125470
#	139804
#	151642
#
# Disc length: 2412 seconds
#
# Revision: 0
# Processed by: cddbd v1.5PL3 Copyright (c) Steve Scherf et al.
# Submitted via: dBpowerAMP V4.0
#
DISCID=a4096a0c
DTITLE=Maria Lucia - Cancoes de Antigamente
DYEAR=1900
DGENRE=Blues
TTITLE0=Lua nova
TTITLE1=Na casa branca da serra
TTITLE2=E o destino desfolhou
TTITLE3=Felicidade
TTITLE4=Malandrinha
TTITLE5=Patativa
TTITLE6=Fiz a cama na varanda
TTITLE7=A voz do violao
TTITLE8=Maringa
TTITLE9=Ouvindo-te
TTITLE10=Velho realejo
TTITLE11=Lampiao de gas
EXTD=
EXTT0=
EXTT1=
EXTT2=
EXTT3=
EXTT4=
EXTT5=
EXTT6=
EXTT7=
EXTT8=
EXTT9=
EXTT10=
EXTT11=
PLAYORDER=
